M48
;DRILL file {KiCad 4.0.7} date 02/19/18 20:18:47
;FORMAT={-:-/ absolute / inch / decimal}
FMAT,2
INCH,TZ
T1C0.035
T2C0.106
%
G90
G05
M72
T1
X4.25Y-2.39
X4.25Y-3.54
X4.25Y-4.69
X4.35Y-2.39
X4.35Y-3.54
X4.35Y-4.69
X5.95Y-1.89
X5.95Y-1.99
X5.95Y-4.89
X5.95Y-4.99
X6.45Y-4.64
X6.45Y-5.04
X7.55Y-2.34
X7.55Y-3.49
X7.55Y-4.69
X7.65Y-2.34
X7.65Y-3.49
X7.65Y-4.69
T2
X5.71Y-4.41
X5.95Y-4.41
X5.95Y-5.39
X6.19Y-4.41
X6.35Y-5.39
T0
M30
