G04 #@! TF.FileFunction,Legend,Top*
%FSLAX46Y46*%
G04 Gerber Fmt 4.6, Leading zero omitted, Abs format (unit mm)*
G04 Created by KiCad (PCBNEW 4.0.7) date 02/19/18 20:18:52*
%MOMM*%
%LPD*%
G01*
G04 APERTURE LIST*
%ADD10C,0.100000*%
%ADD11C,0.120000*%
%ADD12C,0.150000*%
G04 APERTURE END LIST*
D10*
D11*
X152208608Y-50948335D02*
G75*
G03X152365516Y-47716000I-1078608J1672335D01*
G01*
X150051392Y-50948335D02*
G75*
G02X149894484Y-47716000I1078608J1672335D01*
G01*
X152209837Y-50317130D02*
G75*
G03X152210000Y-48235039I-1079837J1041130D01*
G01*
X150050163Y-50317130D02*
G75*
G02X150050000Y-48235039I1079837J1041130D01*
G01*
X152366000Y-47716000D02*
X152210000Y-47716000D01*
X150050000Y-47716000D02*
X149894000Y-47716000D01*
X110892335Y-59627392D02*
G75*
G03X107660000Y-59470484I-1672335J-1078608D01*
G01*
X110892335Y-61784608D02*
G75*
G02X107660000Y-61941516I-1672335J1078608D01*
G01*
X110261130Y-59626163D02*
G75*
G03X108179039Y-59626000I-1041130J-1079837D01*
G01*
X110261130Y-61785837D02*
G75*
G02X108179039Y-61786000I-1041130J1079837D01*
G01*
X107660000Y-59470000D02*
X107660000Y-59626000D01*
X107660000Y-61786000D02*
X107660000Y-61942000D01*
X110892335Y-88837392D02*
G75*
G03X107660000Y-88680484I-1672335J-1078608D01*
G01*
X110892335Y-90994608D02*
G75*
G02X107660000Y-91151516I-1672335J1078608D01*
G01*
X110261130Y-88836163D02*
G75*
G03X108179039Y-88836000I-1041130J-1079837D01*
G01*
X110261130Y-90995837D02*
G75*
G02X108179039Y-90996000I-1041130J1079837D01*
G01*
X107660000Y-88680000D02*
X107660000Y-88836000D01*
X107660000Y-90996000D02*
X107660000Y-91152000D01*
X110892335Y-118047392D02*
G75*
G03X107660000Y-117890484I-1672335J-1078608D01*
G01*
X110892335Y-120204608D02*
G75*
G02X107660000Y-120361516I-1672335J1078608D01*
G01*
X110261130Y-118046163D02*
G75*
G03X108179039Y-118046000I-1041130J-1079837D01*
G01*
X110261130Y-120205837D02*
G75*
G02X108179039Y-120206000I-1041130J1079837D01*
G01*
X107660000Y-117890000D02*
X107660000Y-118046000D01*
X107660000Y-120206000D02*
X107660000Y-120362000D01*
X165240000Y-120276000D02*
X162420000Y-120276000D01*
X162420000Y-120276000D02*
X162420000Y-125596000D01*
X162420000Y-125596000D02*
X165240000Y-125596000D01*
X165240000Y-125596000D02*
X165240000Y-120276000D01*
X163830000Y-118936000D02*
X163830000Y-120276000D01*
X163830000Y-126936000D02*
X163830000Y-125596000D01*
X165240000Y-121116000D02*
X162420000Y-121116000D01*
X191367665Y-60514608D02*
G75*
G03X194600000Y-60671516I1672335J1078608D01*
G01*
X191367665Y-58357392D02*
G75*
G02X194600000Y-58200484I1672335J-1078608D01*
G01*
X191998870Y-60515837D02*
G75*
G03X194080961Y-60516000I1041130J1079837D01*
G01*
X191998870Y-58356163D02*
G75*
G02X194080961Y-58356000I1041130J-1079837D01*
G01*
X194600000Y-60672000D02*
X194600000Y-60516000D01*
X194600000Y-58356000D02*
X194600000Y-58200000D01*
X191367665Y-89724608D02*
G75*
G03X194600000Y-89881516I1672335J1078608D01*
G01*
X191367665Y-87567392D02*
G75*
G02X194600000Y-87410484I1672335J-1078608D01*
G01*
X191998870Y-89725837D02*
G75*
G03X194080961Y-89726000I1041130J1079837D01*
G01*
X191998870Y-87566163D02*
G75*
G02X194080961Y-87566000I1041130J-1079837D01*
G01*
X194600000Y-89882000D02*
X194600000Y-89726000D01*
X194600000Y-87566000D02*
X194600000Y-87410000D01*
X191367665Y-120204608D02*
G75*
G03X194600000Y-120361516I1672335J1078608D01*
G01*
X191367665Y-118047392D02*
G75*
G02X194600000Y-117890484I1672335J-1078608D01*
G01*
X191998870Y-120205837D02*
G75*
G03X194080961Y-120206000I1041130J1079837D01*
G01*
X191998870Y-118046163D02*
G75*
G02X194080961Y-118046000I1041130J-1079837D01*
G01*
X194600000Y-120362000D02*
X194600000Y-120206000D01*
X194600000Y-118046000D02*
X194600000Y-117890000D01*
X150051392Y-123803665D02*
G75*
G03X149894484Y-127036000I1078608J-1672335D01*
G01*
X152208608Y-123803665D02*
G75*
G02X152365516Y-127036000I-1078608J-1672335D01*
G01*
X150050163Y-124434870D02*
G75*
G03X150050000Y-126516961I1079837J-1041130D01*
G01*
X152209837Y-124434870D02*
G75*
G02X152210000Y-126516961I-1079837J-1041130D01*
G01*
X149894000Y-127036000D02*
X150050000Y-127036000D01*
X152210000Y-127036000D02*
X152366000Y-127036000D01*
D12*
X154542381Y-50014095D02*
X153542381Y-50014095D01*
X153542381Y-49776000D01*
X153590000Y-49633142D01*
X153685238Y-49537904D01*
X153780476Y-49490285D01*
X153970952Y-49442666D01*
X154113810Y-49442666D01*
X154304286Y-49490285D01*
X154399524Y-49537904D01*
X154494762Y-49633142D01*
X154542381Y-49776000D01*
X154542381Y-50014095D01*
X154542381Y-48490285D02*
X154542381Y-49061714D01*
X154542381Y-48776000D02*
X153542381Y-48776000D01*
X153685238Y-48871238D01*
X153780476Y-48966476D01*
X153828095Y-49061714D01*
X108481905Y-58198381D02*
X108481905Y-57198381D01*
X108720000Y-57198381D01*
X108862858Y-57246000D01*
X108958096Y-57341238D01*
X109005715Y-57436476D01*
X109053334Y-57626952D01*
X109053334Y-57769810D01*
X109005715Y-57960286D01*
X108958096Y-58055524D01*
X108862858Y-58150762D01*
X108720000Y-58198381D01*
X108481905Y-58198381D01*
X109434286Y-57293619D02*
X109481905Y-57246000D01*
X109577143Y-57198381D01*
X109815239Y-57198381D01*
X109910477Y-57246000D01*
X109958096Y-57293619D01*
X110005715Y-57388857D01*
X110005715Y-57484095D01*
X109958096Y-57626952D01*
X109386667Y-58198381D01*
X110005715Y-58198381D01*
X108481905Y-87408381D02*
X108481905Y-86408381D01*
X108720000Y-86408381D01*
X108862858Y-86456000D01*
X108958096Y-86551238D01*
X109005715Y-86646476D01*
X109053334Y-86836952D01*
X109053334Y-86979810D01*
X109005715Y-87170286D01*
X108958096Y-87265524D01*
X108862858Y-87360762D01*
X108720000Y-87408381D01*
X108481905Y-87408381D01*
X109386667Y-86408381D02*
X110005715Y-86408381D01*
X109672381Y-86789333D01*
X109815239Y-86789333D01*
X109910477Y-86836952D01*
X109958096Y-86884571D01*
X110005715Y-86979810D01*
X110005715Y-87217905D01*
X109958096Y-87313143D01*
X109910477Y-87360762D01*
X109815239Y-87408381D01*
X109529524Y-87408381D01*
X109434286Y-87360762D01*
X109386667Y-87313143D01*
X108481905Y-116618381D02*
X108481905Y-115618381D01*
X108720000Y-115618381D01*
X108862858Y-115666000D01*
X108958096Y-115761238D01*
X109005715Y-115856476D01*
X109053334Y-116046952D01*
X109053334Y-116189810D01*
X109005715Y-116380286D01*
X108958096Y-116475524D01*
X108862858Y-116570762D01*
X108720000Y-116618381D01*
X108481905Y-116618381D01*
X109910477Y-115951714D02*
X109910477Y-116618381D01*
X109672381Y-115570762D02*
X109434286Y-116285048D01*
X110053334Y-116285048D01*
X166692381Y-123674095D02*
X165692381Y-123674095D01*
X165692381Y-123436000D01*
X165740000Y-123293142D01*
X165835238Y-123197904D01*
X165930476Y-123150285D01*
X166120952Y-123102666D01*
X166263810Y-123102666D01*
X166454286Y-123150285D01*
X166549524Y-123197904D01*
X166644762Y-123293142D01*
X166692381Y-123436000D01*
X166692381Y-123674095D01*
X165692381Y-122197904D02*
X165692381Y-122674095D01*
X166168571Y-122721714D01*
X166120952Y-122674095D01*
X166073333Y-122578857D01*
X166073333Y-122340761D01*
X166120952Y-122245523D01*
X166168571Y-122197904D01*
X166263810Y-122150285D01*
X166501905Y-122150285D01*
X166597143Y-122197904D01*
X166644762Y-122245523D01*
X166692381Y-122340761D01*
X166692381Y-122578857D01*
X166644762Y-122674095D01*
X166597143Y-122721714D01*
X192301905Y-62848381D02*
X192301905Y-61848381D01*
X192540000Y-61848381D01*
X192682858Y-61896000D01*
X192778096Y-61991238D01*
X192825715Y-62086476D01*
X192873334Y-62276952D01*
X192873334Y-62419810D01*
X192825715Y-62610286D01*
X192778096Y-62705524D01*
X192682858Y-62800762D01*
X192540000Y-62848381D01*
X192301905Y-62848381D01*
X193730477Y-61848381D02*
X193540000Y-61848381D01*
X193444762Y-61896000D01*
X193397143Y-61943619D01*
X193301905Y-62086476D01*
X193254286Y-62276952D01*
X193254286Y-62657905D01*
X193301905Y-62753143D01*
X193349524Y-62800762D01*
X193444762Y-62848381D01*
X193635239Y-62848381D01*
X193730477Y-62800762D01*
X193778096Y-62753143D01*
X193825715Y-62657905D01*
X193825715Y-62419810D01*
X193778096Y-62324571D01*
X193730477Y-62276952D01*
X193635239Y-62229333D01*
X193444762Y-62229333D01*
X193349524Y-62276952D01*
X193301905Y-62324571D01*
X193254286Y-62419810D01*
X192301905Y-92058381D02*
X192301905Y-91058381D01*
X192540000Y-91058381D01*
X192682858Y-91106000D01*
X192778096Y-91201238D01*
X192825715Y-91296476D01*
X192873334Y-91486952D01*
X192873334Y-91629810D01*
X192825715Y-91820286D01*
X192778096Y-91915524D01*
X192682858Y-92010762D01*
X192540000Y-92058381D01*
X192301905Y-92058381D01*
X193206667Y-91058381D02*
X193873334Y-91058381D01*
X193444762Y-92058381D01*
X192301905Y-122538381D02*
X192301905Y-121538381D01*
X192540000Y-121538381D01*
X192682858Y-121586000D01*
X192778096Y-121681238D01*
X192825715Y-121776476D01*
X192873334Y-121966952D01*
X192873334Y-122109810D01*
X192825715Y-122300286D01*
X192778096Y-122395524D01*
X192682858Y-122490762D01*
X192540000Y-122538381D01*
X192301905Y-122538381D01*
X193444762Y-121966952D02*
X193349524Y-121919333D01*
X193301905Y-121871714D01*
X193254286Y-121776476D01*
X193254286Y-121728857D01*
X193301905Y-121633619D01*
X193349524Y-121586000D01*
X193444762Y-121538381D01*
X193635239Y-121538381D01*
X193730477Y-121586000D01*
X193778096Y-121633619D01*
X193825715Y-121728857D01*
X193825715Y-121776476D01*
X193778096Y-121871714D01*
X193730477Y-121919333D01*
X193635239Y-121966952D01*
X193444762Y-121966952D01*
X193349524Y-122014571D01*
X193301905Y-122062190D01*
X193254286Y-122157429D01*
X193254286Y-122347905D01*
X193301905Y-122443143D01*
X193349524Y-122490762D01*
X193444762Y-122538381D01*
X193635239Y-122538381D01*
X193730477Y-122490762D01*
X193778096Y-122443143D01*
X193825715Y-122347905D01*
X193825715Y-122157429D01*
X193778096Y-122062190D01*
X193730477Y-122014571D01*
X193635239Y-121966952D01*
X148622381Y-126214095D02*
X147622381Y-126214095D01*
X147622381Y-125976000D01*
X147670000Y-125833142D01*
X147765238Y-125737904D01*
X147860476Y-125690285D01*
X148050952Y-125642666D01*
X148193810Y-125642666D01*
X148384286Y-125690285D01*
X148479524Y-125737904D01*
X148574762Y-125833142D01*
X148622381Y-125976000D01*
X148622381Y-126214095D01*
X148622381Y-125166476D02*
X148622381Y-124976000D01*
X148574762Y-124880761D01*
X148527143Y-124833142D01*
X148384286Y-124737904D01*
X148193810Y-124690285D01*
X147812857Y-124690285D01*
X147717619Y-124737904D01*
X147670000Y-124785523D01*
X147622381Y-124880761D01*
X147622381Y-125071238D01*
X147670000Y-125166476D01*
X147717619Y-125214095D01*
X147812857Y-125261714D01*
X148050952Y-125261714D01*
X148146190Y-125214095D01*
X148193810Y-125166476D01*
X148241429Y-125071238D01*
X148241429Y-124880761D01*
X148193810Y-124785523D01*
X148146190Y-124737904D01*
X148050952Y-124690285D01*
X156892667Y-107766381D02*
X156892667Y-108480667D01*
X156845047Y-108623524D01*
X156749809Y-108718762D01*
X156606952Y-108766381D01*
X156511714Y-108766381D01*
X157892667Y-108766381D02*
X157321238Y-108766381D01*
X157606952Y-108766381D02*
X157606952Y-107766381D01*
X157511714Y-107909238D01*
X157416476Y-108004476D01*
X157321238Y-108052095D01*
X160956667Y-132658381D02*
X160956667Y-133372667D01*
X160909047Y-133515524D01*
X160813809Y-133610762D01*
X160670952Y-133658381D01*
X160575714Y-133658381D01*
X161385238Y-132753619D02*
X161432857Y-132706000D01*
X161528095Y-132658381D01*
X161766191Y-132658381D01*
X161861429Y-132706000D01*
X161909048Y-132753619D01*
X161956667Y-132848857D01*
X161956667Y-132944095D01*
X161909048Y-133086952D01*
X161337619Y-133658381D01*
X161956667Y-133658381D01*
X144700667Y-107766381D02*
X144700667Y-108480667D01*
X144653047Y-108623524D01*
X144557809Y-108718762D01*
X144414952Y-108766381D01*
X144319714Y-108766381D01*
X145081619Y-107766381D02*
X145700667Y-107766381D01*
X145367333Y-108147333D01*
X145510191Y-108147333D01*
X145605429Y-108194952D01*
X145653048Y-108242571D01*
X145700667Y-108337810D01*
X145700667Y-108575905D01*
X145653048Y-108671143D01*
X145605429Y-108718762D01*
X145510191Y-108766381D01*
X145224476Y-108766381D01*
X145129238Y-108718762D01*
X145081619Y-108671143D01*
X150796667Y-132658381D02*
X150796667Y-133372667D01*
X150749047Y-133515524D01*
X150653809Y-133610762D01*
X150510952Y-133658381D01*
X150415714Y-133658381D01*
X151701429Y-132991714D02*
X151701429Y-133658381D01*
X151463333Y-132610762D02*
X151225238Y-133325048D01*
X151844286Y-133325048D01*
X150796667Y-107766381D02*
X150796667Y-108480667D01*
X150749047Y-108623524D01*
X150653809Y-108718762D01*
X150510952Y-108766381D01*
X150415714Y-108766381D01*
X151749048Y-107766381D02*
X151272857Y-107766381D01*
X151225238Y-108242571D01*
X151272857Y-108194952D01*
X151368095Y-108147333D01*
X151606191Y-108147333D01*
X151701429Y-108194952D01*
X151749048Y-108242571D01*
X151796667Y-108337810D01*
X151796667Y-108575905D01*
X151749048Y-108671143D01*
X151701429Y-108718762D01*
X151606191Y-108766381D01*
X151368095Y-108766381D01*
X151272857Y-108718762D01*
X151225238Y-108671143D01*
M02*
